<?xml version="1.0" encoding="utf-8"?>
<!-- Generator: Adobe Illustrator 27.8.1, SVG Export Plug-In . SVG Version: 6.00 Build 0)  -->
<svg version="1.1" id="Layer_1" xmlns="http://www.w3.org/2000/svg" xmlns:xlink="http://www.w3.org/1999/xlink" x="0px" y="0px"
	 viewBox="0 0 1000 1000" style="enable-background:new 0 0 1000 1000;" xml:space="preserve">
<path d="M974.9,403.7c-16.5-29.4-40.3-54.1-69.3-71.6c8-32.8,7.4-67.2-1.8-99.5c-9.1-32.4-26.5-62.2-50.3-86
	c-23.8-23.8-53.3-41.2-85.9-50.3c-32.4-9.1-66.8-9.8-99.6-1.7l-0.1-0.2c-17.6-28.7-42.3-52.6-71.7-69.1C566.8,8.6,533.6,0,499.9,0
	c-71.2,0-133.5,37.7-168.1,94.4c-32.7-7.9-67.1-7.4-99.5,1.7c-32.4,9.1-62.2,26.5-85.9,50.3c-24,23.7-41.2,53.5-50.3,85.9
	s-9.7,66.8-1.8,99.5c-28.8,17.6-52.6,42.3-69.1,71.6C8.7,433,0,466.2,0,499.9c0,71.2,37.7,133.5,94.3,168
	c-7.9,32.7-7.4,67.1,1.8,99.7c9.1,32.4,26.5,62.2,50.3,85.9c23.8,24,53.5,41.2,85.9,50.3c32.4,9.1,66.8,9.7,99.5,1.8
	c24.4,40.1,62.3,70.2,107,84.7c44.5,14.5,92.9,12.7,136.2-5.2c38.7-16,71.2-43.8,92.9-79.4c32.9,8,67.1,7.4,99.7-1.7
	c32.4-9.1,62.1-26.5,86.1-50.2c23.8-24,41.2-53.5,50.3-86.1c9.1-32.6,9.7-66.8,1.7-99.7c28.8-17.6,52.6-42.1,69.3-71.6
	c16.5-29.4,25.1-62.6,25.1-96.3C1000,466.4,991.4,433.3,974.9,403.7z M698,337.7L470,679.8v-0.2c-2.9,4.4-6.7,8.2-10.9,11
	s-9.1,4.8-14.2,5.9c-5.1,1-10.3,1-15.5,0c-5-0.9-9.8-3-14.2-5.9L306.7,583.3c-36.1-35.9,19.8-91.9,55.8-55.8l68.5,68.3l201.3-302.1
	C660.5,251.5,726.4,295.4,698,337.7z"/>
</svg>
